<svg width="28" height="28" viewBox="0 0 28 28" fill="none" xmlns="http://www.w3.org/2000/svg">
    <g clip-path="url(#ry0ib351oa)" fill="#3971DE">
        <path d="M6.546 23.395c-.586.586-1.544.591-2.052-.063a12 12 0 1 1 18.954 0c-.509.654-1.467.65-2.053.063-.586-.585-.573-1.53-.093-2.204a9 9 0 1 0-14.663 0c.48.675.493 1.619-.093 2.204z"/>
        <path d="m10.97 12.043.919 8.942a2.152 2.152 0 0 0 2.782 1.6 2.099 2.099 0 0 0 1.215-2.914l-4.915-7.628z"/>
    </g>
    <defs>
        <clipPath id="ry0ib351oa">
            <path fill="#fff" d="M0 0h28v28H0z"/>
        </clipPath>
    </defs>
</svg>
