<svg width="28" height="28" viewBox="0 0 28 28" fill="none" xmlns="http://www.w3.org/2000/svg">
<path fill-rule="evenodd" clip-rule="evenodd" d="M23.6437 13.6661C23.9097 13.8934 24.2404 14 24.5639 14C24.9736 14 25.3834 13.8224 25.6637 13.4885C26.1741 12.8845 26.0951 11.9893 25.484 11.4849L14.0036 2L2.51599 11.4849C1.90495 11.9893 1.82587 12.8845 2.33627 13.4885C2.84667 14.0924 3.75245 14.1705 4.36349 13.6661L5 13.2218V24C5 25.1046 5.89543 26 7 26H21C22.1046 26 23 25.1046 23 24V13.2171L23.6437 13.6661Z" fill="#B2B7C3"/>
<path d="M10 19C10 17.8954 10.8954 17 12 17H16C17.1046 17 18 17.8954 18 19V26H10V19Z" fill="white"/>
</svg>
