<svg width="32" height="32" viewBox="0 0 32 32" fill="none" xmlns="http://www.w3.org/2000/svg">
    <path d="m19.328 16.834-2.498 2.498 2.773 2.773 2.499-2.498-2.774-2.773z" fill="#BFBFBF"/>
    <path d="m21.529 19.427-2.102 2.102a1.46 1.46 0 0 0 0 2.062l5.982 5.982a1.46 1.46 0 0 0 2.062 0l2.102-2.102a1.46 1.46 0 0 0 0-2.062l-5.982-5.982a1.46 1.46 0 0 0-2.062 0z" fill="#26499F"/>
    <circle cx="12.5" cy="12.5" r="9" stroke="#5990F3" stroke-width="3"/>
    <path d="m12.927 12.435 1.843-1.984c.334-.36.3-.91-.075-1.23a.937.937 0 0 0-1.284.071l-1.593 1.719V9.87c0-.48-.407-.87-.909-.87S10 9.39 10 9.87v5.258c0 .481.407.871.909.871s.909-.39.909-.871V13.88l1.577 1.808a.92.92 0 0 0 .698.311.933.933 0 0 0 .582-.203.846.846 0 0 0 .113-1.226l-1.861-2.136z" fill="#E63E23"/>
</svg>
