<svg width="32" height="32" viewBox="0 0 32 32" fill="none" xmlns="http://www.w3.org/2000/svg">
    <path d="m19.328 16.834-2.498 2.498 2.773 2.773 2.499-2.498-2.774-2.773z" fill="#BFBFBF"/>
    <path d="m21.529 19.427-2.102 2.102a1.46 1.46 0 0 0 0 2.062l5.982 5.982a1.46 1.46 0 0 0 2.062 0l2.102-2.102a1.46 1.46 0 0 0 0-2.062l-5.982-5.982a1.46 1.46 0 0 0-2.062 0z" fill="#26499F"/>
    <circle cx="12.5" cy="12.5" r="9" stroke="#5990F3" stroke-width="3"/>
    <path d="M14.07 9c-.515 0-.931.39-.931.871v1.912l-1.396-2.337a.957.957 0 0 0-1.047-.418c-.41.1-.696.447-.696.843v5.258c0 .481.416.871.93.871.515 0 .931-.39.931-.871v-1.912l1.394 2.336a.942.942 0 0 0 .812.447.977.977 0 0 0 .235-.028c.41-.1.696-.447.696-.843V9.87C15 9.39 14.584 9 14.069 9z" fill="#3162D2"/>
</svg>
