<svg width="24" height="24" viewBox="0 0 24 24" fill="none" xmlns="http://www.w3.org/2000/svg">
    <path d="M2.4 5.4a3 3 0 0 1 3-3H12V12H2.4V5.4z" fill="#4880ED"/>
    <path d="M2.4 12H12v9.6H5.4a3 3 0 0 1-3-3V12z" fill="#15C07E"/>
    <path d="M12 2.4h6.6a3 3 0 0 1 3 3V12H12V2.4z" fill="#E15251"/>
    <path d="M12 12h9.6v6.6a3 3 0 0 1-3 3H12V12z" fill="#F9DD60"/>
    <circle cx="12" cy="7.2" r="2.4" fill="#4880ED"/>
    <circle cx="16.8" cy="12" r="2.4" fill="#E15251"/>
    <circle cx="12" cy="16.8" r="2.4" fill="#F9DD60"/>
</svg>
