<svg width="32" height="32" viewBox="0 0 32 32" fill="none" xmlns="http://www.w3.org/2000/svg">
    <path d="M16.75 28.5v.25h4.844c2.037 0 3.656-1.796 3.656-3.96v-3.54h-1.703v3.54c0 1.206-.896 2.15-1.953 2.15H16.75v1.56z" fill="#838D9C" stroke="#838D9C" stroke-width=".5"/>
    <path d="M25.041 15v.025H27.025v-2.667c0-5.726-4.948-10.383-11.025-10.383S4.975 6.632 4.975 12.358v2.667H6.955v-2.667c0-4.696 4.058-8.515 9.045-8.515s9.041 3.82 9.041 8.515V15z" fill="#838D9C" stroke="#838D9C" stroke-width=".05"/>
    <path d="M6.176 25C3.87 25 2 23.481 2 21.606v-4.212C2 15.519 3.869 14 6.176 14 7.738 14 9 15.026 9 16.295v6.41C9 23.971 7.738 25 6.176 25z" fill="#5990F3"/>
    <path d="M8 26c-.55 0-1-.487-1-1.091V14.09c0-.6.446-1.091 1-1.091.55 0 1 .487 1 1.091V24.91c-.003.6-.45 1.091-1 1.091z" fill="#26499F"/>
    <path d="M25.824 14C28.13 14 30 15.519 30 17.394v4.212C30 23.481 28.131 25 25.824 25 24.262 25 23 23.974 23 22.705v-6.41C23 15.029 24.262 14 25.824 14z" fill="#5990F3"/>
    <path d="M24 13c.55 0 1 .487 1 1.091V24.91c0 .6-.446 1.091-1 1.091-.55 0-1-.487-1-1.091V14.09c.003-.6.45-1.091 1-1.091z" fill="#26499F"/>
    <path d="M16 30a2 2 0 1 0 0-4 2 2 0 0 0 0 4z" fill="#333"/>
</svg>
