<svg width="32" height="32" viewBox="0 0 32 32" fill="none" xmlns="http://www.w3.org/2000/svg">
    <path d="M29.714 22.857s-1.892-2.042-2.967-4.14c1.531-1.715 2.437-3.842 2.437-6.146 0-5.681-5.51-10.286-12.306-10.286-6.796 0-12.307 4.605-12.307 10.286 0 5.68 5.51 10.286 12.307 10.286 2.395 0 4.63-.573 6.522-1.563 1.007.504 3.123 1.348 6.314 1.563z" fill="#4977F4"/>
    <path d="M2.286 29.714s1.204-1.36 1.888-2.76c-.974-1.143-1.551-2.56-1.551-4.097C2.623 19.07 6.129 16 10.454 16c4.325 0 7.832 3.07 7.832 6.857 0 3.787-3.507 6.857-7.832 6.857a8.63 8.63 0 0 1-4.15-1.041c-.641.336-1.987.898-4.018 1.041z" fill="#26499F"/>
    <circle cx="6.857" cy="22.858" r="1.143" fill="#fff"/>
    <circle cx="10.286" cy="22.858" r="1.143" fill="#fff"/>
    <circle cx="13.714" cy="22.858" r="1.143" fill="#fff"/>
    <circle cx="12.571" cy="12.571" r="1.143" fill="#fff"/>
    <circle cx="17.143" cy="12.571" r="1.143" fill="#fff"/>
    <circle cx="21.714" cy="12.571" r="1.143" fill="#fff"/>
</svg>
