<svg width="36" height="36" viewBox="0 0 36 36" fill="none" xmlns="http://www.w3.org/2000/svg">
    <path d="m21.042 4.132 1.938 4.98c.474 1.204 1.56 2.03 2.813 2.121l5.151.387c2.944.22 4.139 4.048 1.88 6.026l-3.95 3.456a3.482 3.482 0 0 0-1.07 3.433l1.238 5.215c.707 2.979-2.419 5.343-4.925 3.721l-4.38-2.842a3.178 3.178 0 0 0-3.475 0l-4.379 2.842c-2.506 1.622-5.632-.742-4.925-3.721l1.238-5.215c.3-1.265-.116-2.6-1.07-3.433l-3.95-3.456c-2.259-1.979-1.064-5.806 1.88-6.026l5.151-.386c1.246-.091 2.34-.918 2.813-2.123l1.938-4.98a3.236 3.236 0 0 1 6.084 0z" fill="#F7D26C"/>
</svg>
